<?xml version="1.0" encoding="utf-8"?>
<!-- Generator: Adobe Illustrator 16.0.0, SVG Export Plug-In . SVG Version: 6.00 Build 0)  -->
<!DOCTYPE svg PUBLIC "-//W3C//DTD SVG 1.1//EN" "http://www.w3.org/Graphics/SVG/1.1/DTD/svg11.dtd">
<svg version="1.1" id="Capa_1" xmlns="http://www.w3.org/2000/svg" xmlns:xlink="http://www.w3.org/1999/xlink" x="0px" y="0px"
	 width="45px" height="45px" viewBox="283.5 373.5 45 45" enable-background="new 283.5 373.5 45 45" xml:space="preserve">
<circle fill="#FFFFFF" cx="306" cy="396.001" r="22.5"/>
<path fill="#333333" d="M316.976,393.595l-17.201-9.833c-0.418-0.239-0.894-0.365-1.375-0.365c-0.488,0-0.969,0.13-1.391,0.375
	c-0.852,0.494-1.38,1.412-1.38,2.396v19.665c0,0.984,0.528,1.903,1.38,2.397c0.422,0.244,0.903,0.374,1.391,0.374
	c0.482,0,0.958-0.127,1.375-0.365l17.201-9.833c0.861-0.492,1.396-1.414,1.396-2.406S317.837,394.087,316.976,393.595z
	 M309.522,391.27l-2.362,3.29l-5.649-7.869L309.522,391.27z M298.291,406.914c-0.153-0.015-0.304-0.061-0.438-0.138
	c-0.335-0.194-0.543-0.556-0.543-0.943v-19.665c0-0.387,0.208-0.749,0.543-0.943c0.134-0.078,0.284-0.125,0.438-0.141L306.126,396
	L298.291,406.914z M301.511,405.311l5.649-7.868l2.362,3.289L301.511,405.311z M316.143,396.947l-5.153,2.946L308.196,396
	l2.793-3.892l5.153,2.945c0.339,0.194,0.549,0.557,0.549,0.947S316.481,396.754,316.143,396.947z"/>
</svg>
