<?xml version="1.0" encoding="utf-8"?>
<!-- Generator: Adobe Illustrator 16.0.0, SVG Export Plug-In . SVG Version: 6.00 Build 0)  -->
<!DOCTYPE svg PUBLIC "-//W3C//DTD SVG 1.0//EN" "http://www.w3.org/TR/2001/REC-SVG-20010904/DTD/svg10.dtd">
<svg version="1.0" id="Layer_1" xmlns="http://www.w3.org/2000/svg" xmlns:xlink="http://www.w3.org/1999/xlink" x="0px" y="0px"
	 width="287.834px" height="70.352px" viewBox="0 0 287.834 70.352" enable-background="new 0 0 287.834 70.352"
	 xml:space="preserve">
<g enable-background="new    ">
	<path fill="#E10D0C" d="M24.342,31.259c0,3.392-1.23,6.036-3.689,7.934c-2.46,1.897-5.799,2.847-10.016,2.847
		c-4.569,0-8.083-0.589-10.542-1.766V35.95c1.581,0.668,3.303,1.195,5.166,1.582s3.708,0.579,5.535,0.579
		c2.987,0,5.236-0.566,6.747-1.699c1.511-1.134,2.267-2.711,2.267-4.731c0-1.335-0.268-2.429-0.804-3.281
		c-0.536-0.853-1.432-1.639-2.688-2.359c-1.256-0.72-3.167-1.537-5.732-2.451C7,22.306,4.439,20.787,2.901,19.029
		c-1.538-1.757-2.306-4.05-2.306-6.879c0-2.969,1.116-5.332,3.347-7.09c2.231-1.757,5.184-2.636,8.856-2.636
		c3.831,0,7.354,0.703,10.569,2.108L21.97,8.434c-3.18-1.335-6.272-2.003-9.277-2.003c-2.372,0-4.226,0.51-5.561,1.528
		c-1.335,1.02-2.003,2.434-2.003,4.243c0,1.336,0.246,2.43,0.738,3.281c0.492,0.853,1.322,1.635,2.491,2.346
		c1.168,0.712,2.956,1.499,5.363,2.359c4.042,1.44,6.822,2.987,8.342,4.639C23.582,26.479,24.342,28.623,24.342,31.259z"/>
	<path fill="#E10D0C" d="M51.332,41.511V22.825c0-2.354-0.536-4.111-1.608-5.271s-2.75-1.739-5.034-1.739
		c-3.04,0-5.258,0.826-6.655,2.478s-2.096,4.357-2.096,8.117v15.103h-4.375V0.501h4.375v12.414c0,1.493-0.07,2.732-0.21,3.716h0.263
		c0.861-1.388,2.086-2.481,3.677-3.281c1.59-0.799,3.404-1.199,5.443-1.199c3.532,0,6.181,0.84,7.946,2.518
		c1.766,1.678,2.649,4.345,2.649,7.999v18.845H51.332z"/>
	<path fill="#E10D0C" d="M105.916,12.097c1.282,0,2.434,0.105,3.453,0.316l-0.606,4.059c-1.195-0.263-2.25-0.395-3.163-0.395
		c-2.337,0-4.335,0.948-5.996,2.846c-1.66,1.898-2.491,4.262-2.491,7.09v15.498h-4.375V12.625h3.611l0.501,5.351h0.211
		c1.071-1.88,2.363-3.33,3.874-4.349C102.445,12.607,104.105,12.097,105.916,12.097z"/>
	<path fill="#E10D0C" d="M124.102,38.427c0.773,0,1.52-0.057,2.24-0.171c0.721-0.114,1.292-0.232,1.713-0.355v3.347
		c-0.475,0.229-1.173,0.417-2.095,0.566s-1.753,0.225-2.491,0.225c-5.587,0-8.381-2.943-8.381-8.83V16.025h-4.138v-2.108
		l4.138-1.819l1.845-6.167h2.53v6.694h8.381v3.4h-8.381v17c0,1.739,0.413,3.074,1.239,4.006
		C121.527,37.963,122.661,38.427,124.102,38.427z"/>
</g>
<g enable-background="new    ">
	<path fill="#FFFFFF" d="M146.848,16.025h-7.354v25.486h-4.375V16.025h-5.166v-1.978l5.166-1.581v-1.607
		c0-7.099,3.101-10.648,9.304-10.648c1.529,0,3.321,0.308,5.377,0.923l-1.133,3.505c-1.688-0.544-3.129-0.816-4.323-0.816
		c-1.652,0-2.873,0.549-3.664,1.647c-0.791,1.098-1.186,2.859-1.186,5.284v1.871h7.354V16.025z"/>
	<path fill="#FFFFFF" d="M156.231,12.625v18.739c0,2.355,0.535,4.112,1.607,5.271c1.071,1.16,2.75,1.739,5.033,1.739
		c3.022,0,5.232-0.825,6.629-2.478c1.396-1.651,2.096-4.349,2.096-8.091V12.625h4.375v28.887h-3.611l-0.632-3.874h-0.237
		c-0.896,1.423-2.14,2.513-3.729,3.268c-1.591,0.756-3.404,1.134-5.442,1.134c-3.515,0-6.146-0.835-7.895-2.504
		s-2.622-4.34-2.622-8.013V12.625H156.231z"/>
	<path fill="#FFFFFF" d="M205.017,41.511V22.825c0-2.354-0.536-4.111-1.607-5.271c-1.072-1.16-2.75-1.739-5.035-1.739
		c-3.021,0-5.236,0.816-6.641,2.451c-1.406,1.634-2.109,4.331-2.109,8.091v15.155h-4.375V12.625h3.559l0.711,3.953h0.211
		c0.896-1.423,2.152-2.525,3.77-3.308c1.616-0.781,3.417-1.173,5.402-1.173c3.479,0,6.098,0.84,7.854,2.518s2.636,4.361,2.636,8.052
		v18.845H205.017z"/>
	<path fill="#FFFFFF" d="M238.041,37.637h-0.237c-2.021,2.935-5.043,4.401-9.066,4.401c-3.778,0-6.717-1.292-8.816-3.875
		s-3.15-6.255-3.15-11.017s1.055-8.46,3.164-11.096c2.107-2.636,5.042-3.954,8.803-3.954c3.918,0,6.922,1.424,9.014,4.27h0.343
		l-0.185-2.082l-0.105-2.029V0.501h4.375v41.011h-3.559L238.041,37.637z M229.29,38.375c2.987,0,5.153-0.813,6.498-2.438
		c1.344-1.625,2.016-4.248,2.016-7.867v-0.923c0-4.094-0.682-7.015-2.043-8.764c-1.361-1.748-3.536-2.622-6.523-2.622
		c-2.564,0-4.529,0.997-5.891,2.991s-2.042,4.81-2.042,8.447c0,3.689,0.677,6.475,2.029,8.354
		C224.687,37.435,226.673,38.375,229.29,38.375z"/>
	<path fill="#FFFFFF" d="M255.831,41.511h-4.375V0.501h4.375V41.511z"/>
	<path fill="#FFFFFF" d="M260.522,12.625h4.691l6.326,16.473c1.388,3.761,2.249,6.476,2.583,8.145h0.21
		c0.229-0.896,0.708-2.429,1.438-4.6c0.729-2.17,3.113-8.843,7.155-20.018h4.691l-12.413,32.893
		c-1.23,3.251-2.667,5.557-4.311,6.919c-1.643,1.361-3.658,2.043-6.049,2.043c-1.335,0-2.652-0.149-3.953-0.448v-3.506
		c0.967,0.211,2.047,0.316,3.242,0.316c3.004,0,5.148-1.687,6.432-5.061l1.607-4.111L260.522,12.625z"/>
</g>
<g>
	<path fill="#E10D0C" d="M85.921,24.509c0.33,2.063-1.082,4.006-3.144,4.33c-2.066,0.326-4.004-1.079-4.334-3.146
		c-0.323-2.067,1.086-4.002,3.15-4.331C83.654,21.036,85.594,22.445,85.921,24.509L85.921,24.509z M80.822,37.473
		c-1.756,1.141-4.097,0.639-5.238-1.113c-1.135-1.754-0.64-4.095,1.116-5.236c1.75-1.137,4.097-0.639,5.231,1.113
		C83.07,33.988,82.572,36.334,80.822,37.473L80.822,37.473z M71.791,27.21c0-1.11,0.899-2.006,2.01-2.006
		c1.109,0,2.008,0.896,2.008,2.006c0,1.113-0.898,2.007-2.008,2.007C72.69,29.217,71.791,28.323,71.791,27.21L71.791,27.21z
		 M71.378,37.111c-1.556,1.395-3.947,1.271-5.347-0.282c-1.399-1.554-1.275-3.946,0.276-5.345c1.561-1.396,3.949-1.274,5.349,0.279
		C73.054,33.316,72.926,35.71,71.378,37.111L71.378,37.111z M61.963,23.564c0.849-1.914,3.088-2.77,4.996-1.918
		c1.908,0.848,2.766,3.086,1.921,4.993c-0.849,1.913-3.092,2.769-5.002,1.921C61.972,27.707,61.114,25.471,61.963,23.564
		L61.963,23.564z M73.801,15.195c2.09,0,3.785,1.695,3.785,3.784c0,2.091-1.695,3.784-3.785,3.784c-2.09,0-3.783-1.693-3.783-3.784
		C70.018,16.891,71.711,15.195,73.801,15.195L73.801,15.195z M73.801,12.341c-8.209,0-14.867,6.656-14.867,14.871
		c0,8.209,6.658,14.867,14.867,14.867c8.211,0,14.87-6.658,14.87-14.867C88.671,18.997,82.012,12.341,73.801,12.341"/>
</g>
<g enable-background="new    ">
	<path fill="#FFFFFF" d="M64.15,64.656h-4.244v5.694h-1.667V55.28h5.543c3.226,0,4.785,1.343,4.785,4.591
		c0,2.316-0.823,3.768-2.75,4.352l2.88,6.128h-1.84L64.15,64.656z M63.782,56.861h-3.876v6.214h3.897
		c2.295,0,3.053-1.277,3.053-3.204C66.856,57.792,65.882,56.861,63.782,56.861z"/>
	<path fill="#FFFFFF" d="M79.347,68.899l0.043,1.321c0,0-2.447,0.347-4.2,0.347c-3.248,0-4.309-1.884-4.309-5.564
		c0-4.114,1.797-5.695,4.547-5.695c2.858,0,4.352,1.516,4.352,5.067l-0.086,1.256h-7.167c0.022,2.273,0.715,3.464,2.858,3.464
		C77.008,69.094,79.347,68.899,79.347,68.899z M78.156,64.309c0-2.599-0.845-3.551-2.729-3.551c-1.862,0-2.901,1.018-2.901,3.551
		H78.156z"/>
	<path fill="#FFFFFF" d="M82.527,55.194h1.602v1.884h-1.602V55.194z M82.527,59.524h1.602V70.35h-1.602V59.524z"/>
	<path fill="#FFFFFF" d="M87.766,70.35V59.524h1.624v0.715c0,0,1.819-0.932,3.356-0.932c2.966,0,3.638,1.473,3.638,5.413v5.63
		h-1.603v-5.608c0-2.879-0.325-3.94-2.295-3.94c-1.429,0-3.096,0.802-3.096,0.802v8.747H87.766z"/>
	<path fill="#FFFFFF" d="M100.386,59.524l2.598,9.44h0.801l2.642-9.44h1.646l-3.075,10.826h-3.248l-3.053-10.826H100.386z"/>
	<path fill="#FFFFFF" d="M118.161,68.899l0.043,1.321c0,0-2.447,0.347-4.2,0.347c-3.248,0-4.309-1.884-4.309-5.564
		c0-4.114,1.797-5.695,4.547-5.695c2.858,0,4.352,1.516,4.352,5.067l-0.086,1.256h-7.167c0.022,2.273,0.715,3.464,2.858,3.464
		C115.822,69.094,118.161,68.899,118.161,68.899z M116.97,64.309c0-2.599-0.845-3.551-2.729-3.551c-1.862,0-2.901,1.018-2.901,3.551
		H116.97z"/>
	<path fill="#FFFFFF" d="M121.471,70.35V59.524h1.624v0.715c0,0,1.819-0.932,3.356-0.932c2.966,0,3.638,1.473,3.638,5.413v5.63
		h-1.603v-5.608c0-2.879-0.325-3.94-2.295-3.94c-1.429,0-3.096,0.802-3.096,0.802v8.747H121.471z"/>
	<path fill="#FFFFFF" d="M135.628,60.997v5.045c0,2.36,0.13,3.01,1.559,3.01c0.606,0,1.927-0.108,1.927-0.108l0.086,1.407
		c0,0-1.429,0.238-2.187,0.238c-2.23,0-3.009-0.845-3.009-3.963v-5.629h-1.538v-1.473h1.538v-3.313h1.624v3.313h3.421v1.473H135.628
		z"/>
	<path fill="#FFFFFF" d="M154.96,56.991c0,0-2.988-0.347-4.243-0.347c-2.122,0-3.27,0.693-3.27,2.382
		c0,1.971,1.039,2.295,3.681,2.88c2.988,0.671,4.309,1.407,4.309,4.092c0,3.248-1.84,4.548-4.85,4.548
		c-1.646,0-4.612-0.455-4.612-0.455l0.173-1.516c0,0,2.881,0.368,4.418,0.368c2.121,0,3.183-0.802,3.183-2.88
		c0-1.688-0.888-2.165-3.335-2.642c-3.096-0.671-4.633-1.407-4.633-4.353c0-2.814,1.883-4.027,4.937-4.027
		c1.667,0,4.396,0.434,4.396,0.434L154.96,56.991z"/>
	<path fill="#FFFFFF" d="M158.271,70.35V54.545h1.625v5.499c0,0,1.818-0.736,3.334-0.736c2.988,0,3.659,1.473,3.659,5.392v5.651
		h-1.624v-5.63c0-2.857-0.324-3.919-2.273-3.919c-1.451,0-3.096,0.628-3.096,0.628v8.921H158.271z"/>
	<path fill="#FFFFFF" d="M178.968,64.829c0,3.746-0.953,5.738-4.612,5.738s-4.655-1.819-4.655-5.781
		c0-3.725,1.234-5.479,4.655-5.479C177.625,59.307,178.968,61.127,178.968,64.829z M177.3,64.829c0-2.88-0.865-4.049-2.944-4.049
		c-2.295,0-2.987,1.039-2.987,4.006c0,3.031,0.433,4.33,2.987,4.33C176.911,69.116,177.3,67.687,177.3,64.829z"/>
	<path fill="#FFFFFF" d="M181.932,59.524h1.624v1.429c0,0,1.667-1.256,3.768-1.646v1.689c-2.035,0.39-3.768,1.494-3.768,1.494v7.859
		h-1.624V59.524z"/>
	<path fill="#FFFFFF" d="M191.499,60.997v5.045c0,2.36,0.131,3.01,1.56,3.01c0.606,0,1.927-0.108,1.927-0.108l0.087,1.407
		c0,0-1.429,0.238-2.187,0.238c-2.23,0-3.01-0.845-3.01-3.963v-5.629h-1.537v-1.473h1.537v-3.313h1.623v3.313h3.422v1.473H191.499z"
		/>
	<path fill="#FFFFFF" d="M199.185,70.35h-1.603v-9.354h-1.364v-1.473h1.364V58.55c0-3.117,0.78-3.94,2.901-3.94
		c0.758,0,2.188,0.151,2.188,0.151l-0.021,1.343c0,0-1.213-0.043-1.841-0.043c-1.213,0-1.624,0.52-1.624,2.511v0.953h3.161v1.473
		h-3.161V70.35z"/>
	<path fill="#FFFFFF" d="M204.597,55.194h1.602v1.884h-1.602V55.194z M204.597,59.524h1.602V70.35h-1.602V59.524z"/>
	<path fill="#FFFFFF" d="M209.771,54.804h1.602V70.35h-1.602V54.804z"/>
	<path fill="#FFFFFF" d="M215.073,70.35V59.524h1.624v0.736c0,0,1.299-0.779,2.706-0.866c0.434-0.043,0.845-0.064,1.191-0.021
		c0.909,0.087,1.559,0.39,1.992,0.909c0.627-0.238,2.425-0.975,3.918-0.975c2.945,0,3.66,1.408,3.66,5.413v5.63h-1.624v-5.132
		c0-3.313-0.217-4.417-2.273-4.417c-1.473,0-2.988,0.779-3.031,0.802c0.173,0.498,0.26,1.818,0.26,3.117v5.63h-1.624v-5.586
		c0-2.988-0.303-3.963-2.273-3.963c-1.451,0-2.901,0.802-2.901,0.802v8.747H215.073z"/>
</g>
</svg>
