<?xml version="1.0" encoding="utf-8"?>
<!-- Generator: Adobe Illustrator 16.0.0, SVG Export Plug-In . SVG Version: 6.00 Build 0)  -->
<!DOCTYPE svg PUBLIC "-//W3C//DTD SVG 1.1//EN" "http://www.w3.org/Graphics/SVG/1.1/DTD/svg11.dtd">
<svg version="1.1" id="Capa_1" xmlns="http://www.w3.org/2000/svg" xmlns:xlink="http://www.w3.org/1999/xlink" x="0px" y="0px"
	 width="45px" height="45px" viewBox="283.5 373.5 45 45" enable-background="new 283.5 373.5 45 45" xml:space="preserve">
<circle fill="#FFFFFF" cx="306" cy="396.001" r="22.5"/>
<path fill="#333333" d="M375.643,364.709l-17.201-9.833c-0.418-0.239-0.893-0.365-1.375-0.365c-0.487,0-0.969,0.13-1.391,0.375
	c-0.852,0.494-1.38,1.412-1.38,2.396v19.665c0,0.984,0.528,1.903,1.38,2.397c0.422,0.244,0.903,0.374,1.391,0.374
	c0.482,0,0.957-0.127,1.375-0.365l17.201-9.833c0.861-0.492,1.396-1.414,1.396-2.406S376.504,365.202,375.643,364.709z
	 M368.189,362.384l-2.362,3.29l-5.649-7.869L368.189,362.384z M356.958,378.028c-0.153-0.015-0.304-0.061-0.438-0.138
	c-0.335-0.194-0.543-0.556-0.543-0.943v-19.665c0-0.387,0.208-0.749,0.543-0.943c0.134-0.078,0.283-0.125,0.438-0.141l7.836,10.917
	L356.958,378.028z M360.178,376.425l5.649-7.868l2.362,3.289L360.178,376.425z M374.81,368.062l-5.153,2.946l-2.793-3.893
	l2.793-3.892l5.153,2.945c0.339,0.194,0.549,0.557,0.549,0.947S375.148,367.868,374.81,368.062z"/>
<g>
	<path id="App_Store" fill="#333333" d="M295.96,397.646v-3.013c0-0.275,0.227-0.501,0.504-0.501h5.322l-2.316,4.016h-3.006
		C296.187,398.148,295.96,397.922,295.96,397.646z M299.751,403.813l-1.698,1.15c-0.229,0.156-0.391,0.059-0.358-0.217l0.227-1.969
		c0.031-0.273,0.254-0.387,0.494-0.25l1.314,0.752C299.97,403.416,299.98,403.658,299.751,403.813z M300.16,402.703l-1.314-0.752
		c-0.24-0.137-0.325-0.445-0.186-0.684l6.087-10.551c0.138-0.24,0.449-0.324,0.689-0.185l1.314,0.749
		c0.24,0.139,0.324,0.447,0.186,0.686l-6.086,10.553C300.711,402.758,300.4,402.84,300.16,402.703z M304.792,398.148l2.317-4.016
		h1.334l1.881,4.016H304.792z M312.34,399.346c-0.527-0.262-3.148-6.283-3.818-7.853c-0.674-1.571-2.703-5.752-2.047-6.077
		c0.467-0.233,2.145,3.059,3.4,5.035s3.881,7.073,4.203,7.655c0.322,0.58-0.309,1.066-0.658,1.211
		C313.068,399.463,312.865,399.607,312.34,399.346z M314.061,402.113l-0.791-1.246c-0.164-0.258-0.078-0.578,0.188-0.715
		l0.754-0.387c0.266-0.135,0.6-0.025,0.74,0.246l0.625,1.195c0.143,0.271,0.045,0.617-0.211,0.771l-0.539,0.32
		C314.57,402.455,314.225,402.369,314.061,402.113z M316.975,405.379c-0.164-0.527-1.428-0.563-1.994-1.355s-0.098-1.201,0.1-1.389
		C317.373,401.348,316.975,405.379,316.975,405.379z M318.156,397.646c0,0.275-0.227,0.502-0.504,0.502h-2.664
		c-0.029-0.156-0.078-0.311-0.158-0.455c-0.07-0.125-0.244-0.457-0.488-0.922c-0.354-0.67-0.859-1.629-1.402-2.639h4.711
		c0.279,0,0.506,0.226,0.506,0.501V397.646L318.156,397.646z"/>
</g>
</svg>
